<svg width="32" height="32" viewBox="0 0 32 32" fill="none" xmlns="http://www.w3.org/2000/svg">
<path d="M9.72303 11.0577L15.0507 5.7244C15.5311 5.24354 16.2873 5.20613 16.8106 5.61245L16.9362 5.72328L22.2765 11.0566C22.7976 11.577 22.7981 12.4212 22.2778 12.9422C21.7975 13.4232 21.0412 13.4607 20.5178 13.0543L20.3922 12.9435L17.3343 9.88937L17.3344 25.3343C17.3344 26.0181 16.8196 26.5816 16.1565 26.6586L16.001 26.6676C15.3172 26.6676 14.7537 26.1529 14.6767 25.4898L14.6677 25.3343L14.6677 9.88004L11.6096 12.9424C11.1293 13.4233 10.373 13.4606 9.8497 13.0542L9.72403 12.9433C9.24313 12.463 9.20576 11.7067 9.61218 11.1834L9.72303 11.0577L15.0507 5.7244L9.72303 11.0577Z" fill="#242424"/>
</svg>
