<svg width="32" height="32" viewBox="0 0 32 32" fill="none" xmlns="http://www.w3.org/2000/svg">
<path d="M9.54503 4.584L9.61181 4.57598L9.7147 4.57141L9.80069 4.5746L9.9441 4.59454L10.0714 4.62825L10.1984 4.67847L10.3098 4.73826L10.4295 4.82248L10.5228 4.90615L16.8085 11.1919C17.2549 11.6382 17.2549 12.3618 16.8085 12.8081C16.3966 13.2201 15.7483 13.2518 15.3 12.9032L15.1923 12.8081L10.8576 8.47427V26.2857C10.8576 26.9169 10.3459 27.4286 9.7147 27.4286C9.12861 27.4286 8.64555 26.9874 8.57954 26.419L8.57185 26.2857V8.47427L4.23711 12.8081C3.82513 13.2201 3.17687 13.2518 2.72853 12.9032L2.62087 12.8081C2.20889 12.3961 2.1772 11.7479 2.5258 11.2995L2.62087 11.1919L8.90658 4.90615C8.94703 4.8657 8.98976 4.82891 9.03435 4.79579L9.16149 4.71389L9.29032 4.65281L9.41071 4.61238L9.54503 4.584ZM22.2861 4.57141C22.8722 4.57141 23.3553 5.0126 23.4213 5.58099L23.429 5.71427V23.5257L27.7637 19.1919L27.8714 19.0968C28.3197 18.7482 28.968 18.7799 29.38 19.1919C29.792 19.6038 29.8236 20.2521 29.475 20.7004L29.38 20.8081L23.0943 27.0938L23.044 27.1411L22.9665 27.2042L22.8393 27.2861L22.7105 27.3472L22.5901 27.3876L22.4558 27.416L22.3538 27.4266H22.2183L22.1512 27.4207L22.0193 27.3972L21.8957 27.3601L21.8025 27.3215L21.691 27.2617L21.5813 27.1854C21.545 27.1569 21.5105 27.1264 21.478 27.0938L15.1923 20.8081L15.0972 20.7004C14.7777 20.2895 14.7777 19.7105 15.0972 19.2995L15.1923 19.1919L15.3 19.0968C15.7109 18.7772 16.2899 18.7772 16.7009 19.0968L16.8085 19.1919L21.1433 23.5257V5.71427L21.151 5.58099C21.217 5.0126 21.7 4.57141 22.2861 4.57141Z" fill="#242424"/>
</svg>
