<svg width="32" height="32" viewBox="0 0 32 32" fill="none" xmlns="http://www.w3.org/2000/svg">
<path d="M15.8442 5.34649L15.9997 5.33752C16.6835 5.33752 17.247 5.85224 17.324 6.51536L17.333 6.67086L17.333 22.1159L20.3898 19.0575C20.8702 18.5767 21.6265 18.5393 22.1497 18.9458L22.2754 19.0567C22.7562 19.5371 22.7936 20.2934 22.3871 20.8166L22.2763 20.9423L16.9479 26.2756C16.4675 26.7565 15.7112 26.7938 15.188 26.3873L15.0623 26.2765L9.72398 20.9432C9.20303 20.4227 9.20263 19.5785 9.72309 19.0575C10.2035 18.5767 10.9598 18.5393 11.483 18.9458L11.6087 19.0567L14.6663 22.1106L14.6663 6.67086C14.6663 5.98708 15.1811 5.42351 15.8442 5.34649L15.9997 5.33752L15.8442 5.34649Z" fill="#242424"/>
</svg>
