<svg width="32" height="32" viewBox="0 0 32 32" fill="none" xmlns="http://www.w3.org/2000/svg">
<path d="M5.33301 5.99996V26C5.33301 27.8409 6.82539 29.3333 8.66634 29.3333H26.333C26.8853 29.3333 27.333 28.8856 27.333 28.3333C27.333 27.781 26.8853 27.3333 26.333 27.3333H8.66634C7.92996 27.3333 7.33301 26.7363 7.33301 26H26.333C26.8853 26 27.333 25.5522 27.333 25V5.99996C27.333 4.15901 25.8406 2.66663 23.9997 2.66663H8.66634C6.82539 2.66663 5.33301 4.15901 5.33301 5.99996ZM14.6661 10.69C14.6537 11.2315 14.2108 11.6666 13.6663 11.6666C12.6663 11.6666 12.6663 10.6652 12.6663 10.6652L12.6663 10.6636L12.6664 10.6605L12.6664 10.6535C12.6668 10.634 12.6673 10.6144 12.6683 10.5949C12.6698 10.5626 12.6726 10.5221 12.6776 10.4745C12.6875 10.3797 12.7063 10.2545 12.7419 10.1091C12.8127 9.81985 12.9539 9.43532 13.2376 9.05204C13.843 8.23439 14.9306 7.63633 16.6837 7.66676C17.9499 7.68874 19.0742 8.21992 19.7783 9.09392C20.4943 9.98268 20.7353 11.1869 20.2615 12.3713C19.7786 13.5785 18.6862 14.0582 18.0586 14.3337L17.9906 14.3636C17.6192 14.5276 17.4414 14.6132 17.3348 14.6986L17.333 14.7L17.333 15.6655C17.3331 16.2178 16.8854 16.6666 16.3331 16.6666C15.7808 16.6667 15.3331 16.219 15.333 15.6667L15.333 14.6666C15.333 13.9692 15.669 13.4705 16.0841 13.1379C16.4176 12.8707 16.8365 12.6864 17.1318 12.5565L17.183 12.5339C17.9053 12.2151 18.2488 12.0179 18.4045 11.6286C18.5974 11.1463 18.5049 10.7012 18.2209 10.3487C17.9249 9.98135 17.3825 9.67919 16.649 9.66646C15.4021 9.64481 14.9897 10.0467 14.845 10.2421C14.7538 10.3653 14.7075 10.4906 14.6846 10.5845C14.6733 10.6306 14.6686 10.6654 14.6668 10.6826L14.6661 10.69ZM17.6663 19.3333C17.6663 20.0697 17.0694 20.6666 16.333 20.6666C15.5966 20.6666 14.9997 20.0697 14.9997 19.3333C14.9997 18.5969 15.5966 18 16.333 18C17.0694 18 17.6663 18.5969 17.6663 19.3333Z" fill="#242424"/>
</svg>
