<svg width="32" height="32" viewBox="0 0 32 32" fill="none" xmlns="http://www.w3.org/2000/svg">
<path d="M13.3332 6.66667H18.6665C18.6665 5.19391 17.4726 4 15.9998 4C14.5271 4 13.3332 5.19391 13.3332 6.66667ZM11.3332 6.66667C11.3332 4.08934 13.4225 2 15.9998 2C18.5772 2 20.6665 4.08934 20.6665 6.66667H28.3332C28.8855 6.66667 29.3332 7.11438 29.3332 7.66667C29.3332 8.21895 28.8855 8.66667 28.3332 8.66667H26.5744L25.0117 24.815C24.7636 27.3779 22.6098 29.3333 20.0349 29.3333H11.9648C9.38989 29.3333 7.23603 27.3779 6.98801 24.815L5.42527 8.66667H3.6665C3.11422 8.66667 2.6665 8.21895 2.6665 7.66667C2.6665 7.11438 3.11422 6.66667 3.6665 6.66667H11.3332ZM13.9998 13C13.9998 12.4477 13.5521 12 12.9998 12C12.4476 12 11.9998 12.4477 11.9998 13V23C11.9998 23.5523 12.4476 24 12.9998 24C13.5521 24 13.9998 23.5523 13.9998 23V13ZM18.9998 12C18.4476 12 17.9998 12.4477 17.9998 13V23C17.9998 23.5523 18.4476 24 18.9998 24C19.5521 24 19.9998 23.5523 19.9998 23V13C19.9998 12.4477 19.5521 12 18.9998 12Z" fill="#242424"/>
</svg>
