<svg width="32" height="32" viewBox="0 0 32 32" fill="none" xmlns="http://www.w3.org/2000/svg">
<path d="M5.33301 5.66663C5.33301 4.00977 6.67615 2.66663 8.33301 2.66663H23.6663C25.3232 2.66663 26.6663 4.00977 26.6663 5.66663V18.4436C25.9443 18.1573 25.157 18 24.333 18H19.6663C16.1685 18 13.333 20.8355 13.333 24.3333C13.333 26.3656 14.2903 28.1744 15.7786 29.3333H8.33301C6.67615 29.3333 5.33301 27.9901 5.33301 26.3333V5.66663ZM21.6663 7.99996H10.333C9.78072 7.99996 9.33301 8.44767 9.33301 8.99996C9.33301 9.55224 9.78072 9.99996 10.333 9.99996H21.6663C22.2186 9.99996 22.6663 9.55224 22.6663 8.99996C22.6663 8.44767 22.2186 7.99996 21.6663 7.99996ZM21.6663 14.6666H10.333C9.78072 14.6666 9.33301 15.1143 9.33301 15.6666C9.33301 16.2189 9.78072 16.6666 10.333 16.6666H21.6663C22.2186 16.6666 22.6663 16.2189 22.6663 15.6666C22.6663 15.1143 22.2186 14.6666 21.6663 14.6666ZM29.333 24.3333C29.333 21.5719 27.0944 19.3333 24.333 19.3333L24.1973 19.3424C23.7092 19.4086 23.333 19.827 23.333 20.3333C23.333 20.8856 23.7807 21.3333 24.333 21.3333L24.5384 21.3402C26.0995 21.4458 27.333 22.7455 27.333 24.3333C27.333 25.9901 25.9899 27.3333 24.333 27.3333L24.3284 27.3394L24.1928 27.3492C23.705 27.4176 23.3307 27.8377 23.333 28.344C23.3356 28.8963 23.7853 29.3419 24.3376 29.3395V29.3333L24.6027 29.3264C27.2365 29.1883 29.333 27.0056 29.333 24.3333ZM20.6663 20.3333C20.6663 19.781 20.2186 19.3333 19.6663 19.3333L19.4008 19.3402C16.7628 19.4783 14.6663 21.6609 14.6663 24.3333C14.6663 27.0947 16.9049 29.3333 19.6663 29.3333L19.802 29.3242C20.2901 29.2579 20.6663 28.8396 20.6663 28.3333C20.6663 27.781 20.2186 27.3333 19.6663 27.3333L19.4609 27.3264C17.8999 27.2208 16.6663 25.9211 16.6663 24.3333C16.6663 22.6764 18.0095 21.3333 19.6663 21.3333L19.802 21.3242C20.2901 21.2579 20.6663 20.8396 20.6663 20.3333ZM25.333 24.3333C25.333 23.781 24.8853 23.3333 24.333 23.3333H19.6663L19.5306 23.3424C19.0425 23.4086 18.6663 23.827 18.6663 24.3333C18.6663 24.8856 19.1141 25.3333 19.6663 25.3333H24.333L24.4687 25.3242C24.9568 25.2579 25.333 24.8396 25.333 24.3333Z" fill="#242424"/>
</svg>
