<svg width="32" height="32" viewBox="0 0 32 32" fill="none" xmlns="http://www.w3.org/2000/svg">
<path d="M5.33301 5.66663C5.33301 4.00977 6.67615 2.66663 8.33301 2.66663H23.6663C25.3232 2.66663 26.6663 4.00977 26.6663 5.66663V15.3308C25.6402 14.9029 24.5142 14.6666 23.333 14.6666C22.9078 14.6666 22.4898 14.6972 22.081 14.7564C21.9547 14.6987 21.8143 14.6666 21.6663 14.6666H10.333C9.78072 14.6666 9.33301 15.1143 9.33301 15.6666C9.33301 16.2189 9.78072 16.6666 10.333 16.6666H17.7949C15.8833 18.2564 14.6663 20.6527 14.6663 23.3333C14.6663 25.6619 15.5847 27.7761 17.0791 29.3333H8.33301C6.67615 29.3333 5.33301 27.9901 5.33301 26.3333V5.66663ZM21.6663 7.99996H10.333C9.78072 7.99996 9.33301 8.44767 9.33301 8.99996C9.33301 9.55224 9.78072 9.99996 10.333 9.99996H21.6663C22.2186 9.99996 22.6663 9.55224 22.6663 8.99996C22.6663 8.44767 22.2186 7.99996 21.6663 7.99996ZM30.6663 23.3333C30.6663 19.2832 27.3831 16 23.333 16C19.2829 16 15.9997 19.2832 15.9997 23.3333C15.9997 27.3834 19.2829 30.6666 23.333 30.6666C27.3831 30.6666 30.6663 27.3834 30.6663 23.3333ZM24.0005 24L24.0012 27.338C24.0012 27.7062 23.7027 28.0046 23.3345 28.0046C22.9663 28.0046 22.6678 27.7062 22.6678 27.338L22.6672 24H19.3271C18.9593 24 18.6611 23.7015 18.6611 23.3333C18.6611 22.9651 18.9593 22.6666 19.3271 22.6666H22.667L22.6663 19.3323C22.6663 18.9641 22.9648 18.6656 23.333 18.6656C23.7012 18.6656 23.9997 18.9641 23.9997 19.3323L24.0003 22.6666H27.3285C27.6963 22.6666 27.9945 22.9651 27.9945 23.3333C27.9945 23.7015 27.6963 24 27.3285 24H24.0005Z" fill="#242424"/>
</svg>
