<svg width="32" height="32" viewBox="0 0 32 32" fill="none" xmlns="http://www.w3.org/2000/svg">
<path d="M3.86667 6.6667C3.86667 4.08935 5.956 2 8.53333 2H25.3333C27.9107 2 30 4.08935 30 6.6667V23.4668C30 26.0442 27.9107 28.1335 25.3333 28.1335H20.5073C20.3725 27.7513 20.1523 27.3925 19.8466 27.0867L16.1143 23.3545C16.6392 22.2573 16.9333 21.0283 16.9333 19.7332C16.9333 15.094 13.1725 11.3332 8.53333 11.3332C6.80653 11.3332 5.20143 11.8542 3.86667 12.7477V6.6667ZM22.5333 8.53316V21.5999C22.5333 22.1154 22.9512 22.5333 23.4667 22.5333C23.9821 22.5333 24.4 22.1154 24.4 21.5999V8.53316C24.4 8.01769 23.9821 7.59982 23.4667 7.59982C22.9512 7.59982 22.5333 8.01769 22.5333 8.53316ZM15.0667 19.7332C15.0667 21.2008 14.5828 22.5553 13.766 23.646L18.5266 28.4067C18.8911 28.7712 18.8911 29.3621 18.5266 29.7266C18.1621 30.0911 17.5712 30.0911 17.2067 29.7266L12.446 24.9659C11.3554 25.7828 10.0008 26.2666 8.53333 26.2666C4.92507 26.2666 2 23.3415 2 19.7332C2 16.125 4.92507 13.1999 8.53333 13.1999C12.1416 13.1999 15.0667 16.125 15.0667 19.7332ZM13.2 19.7332C13.2 17.1559 11.1107 15.0665 8.53333 15.0665C5.956 15.0665 3.86667 17.1559 3.86667 19.7332C3.86667 22.3106 5.956 24.4 8.53333 24.4C11.1107 24.4 13.2 22.3106 13.2 19.7332Z" fill="#242424"/>
</svg>
