<svg width="32" height="32" viewBox="0 0 32 32" fill="none" xmlns="http://www.w3.org/2000/svg">
<path d="M20.1869 11.9772C19.046 11.2727 18.2856 10.0108 18.2856 8.57139C18.2856 6.36225 20.0765 4.57139 22.2856 4.57139C24.4948 4.57139 26.2856 6.36225 26.2856 8.57139C26.2856 10.0108 25.5253 11.2727 24.3844 11.9772C23.7743 12.354 23.0554 12.5714 22.2856 12.5714C21.5159 12.5714 20.797 12.354 20.1869 11.9772ZM26.2856 22.3152C26.5537 22.4099 26.8422 22.4615 27.1428 22.4615C27.4433 22.4615 27.7318 22.4099 27.9999 22.3152C28.9987 21.9622 29.7142 21.0097 29.7142 19.8901V16.8344C29.7142 15.0986 28.3071 13.6915 26.5714 13.6915H19.9204C19.9259 13.7215 19.9311 13.7516 19.9361 13.7818C19.9735 14.0108 19.9949 14.2451 19.9991 14.4836C19.9997 14.5128 19.9999 14.5421 19.9999 14.5714V19.1428C19.9999 20.7874 19.0736 22.2157 17.7142 22.9342V27.1632C17.7142 28.5833 18.8655 29.7346 20.2856 29.7346C20.9442 29.7346 21.545 29.487 21.9999 29.0798C22.4549 29.487 23.0556 29.7346 23.7142 29.7346C25.1344 29.7346 26.2856 28.5833 26.2856 27.1632V22.3152ZM18.2792 19.3258C18.2835 19.2654 18.2856 19.2043 18.2856 19.1428V14.5714C18.2856 14.5486 18.2854 14.5258 18.2849 14.5031C18.2789 14.222 18.236 13.9499 18.1608 13.6915C17.7803 12.384 16.5731 11.4285 15.1428 11.4285H5.4285C3.69275 11.4285 2.28564 12.8356 2.28564 14.5714V19.1428C2.28564 20.2624 3.00119 21.2149 3.99993 21.5679C4.26803 21.6627 4.55653 21.7142 4.85707 21.7142C5.15762 21.7142 5.44612 21.6627 5.71422 21.5679V27C5.71422 28.499 6.92944 29.7142 8.4285 29.7142C9.14691 29.7142 9.80013 29.4351 10.2856 28.9795C10.7712 29.4351 11.4244 29.7142 12.1428 29.7142C13.6418 29.7142 14.8571 28.499 14.8571 27V21.5679C15.1252 21.6627 15.4137 21.7142 15.7142 21.7142C16.0148 21.7142 16.3033 21.6627 16.5714 21.5679C17.0238 21.408 17.4182 21.125 17.7142 20.7592C18.0357 20.3619 18.2412 19.867 18.2792 19.3258ZM8.07078 9.71425C8.72693 10.0783 9.48207 10.2857 10.2856 10.2857C11.0892 10.2857 11.8444 10.0783 12.5005 9.71425C13.9059 8.93441 14.8571 7.43541 14.8571 5.71425C14.8571 3.18952 12.8104 1.14282 10.2856 1.14282C7.76091 1.14282 5.71422 3.18952 5.71422 5.71425C5.71422 7.43541 6.6654 8.93441 8.07078 9.71425Z" fill="#242424"/>
</svg>
