<svg width="32" height="32" viewBox="0 0 32 32" fill="none" xmlns="http://www.w3.org/2000/svg">
<path d="M3.49984 10.3334H16.7499C17.1359 12.2352 18.8174 13.6667 20.8332 13.6667C22.849 13.6667 24.5304 12.2352 24.9165 10.3334H28.4998C28.9601 10.3334 29.3332 9.96028 29.3332 9.50004C29.3332 9.0398 28.9601 8.66671 28.4998 8.66671H24.9165C24.5304 6.76484 22.849 5.33337 20.8332 5.33337C18.8174 5.33337 17.1359 6.76484 16.7499 8.66671H3.49984C3.0396 8.66671 2.6665 9.0398 2.6665 9.50004C2.6665 9.96028 3.0396 10.3334 3.49984 10.3334ZM3.49984 23H7.24985C7.63591 24.9019 9.31737 26.3334 11.3332 26.3334C13.349 26.3334 15.0304 24.9019 15.4165 23H28.4998C28.9601 23 29.3332 22.6269 29.3332 22.1667C29.3332 21.7065 28.9601 21.3334 28.4998 21.3334H15.4165C15.0304 19.4315 13.349 18 11.3332 18C9.31737 18 7.63591 19.4315 7.24985 21.3334H3.49984C3.0396 21.3334 2.6665 21.7065 2.6665 22.1667C2.6665 22.6269 3.0396 23 3.49984 23Z" fill="#242424"/>
</svg>
