<svg width="32" height="32" viewBox="0 0 32 32" fill="none" xmlns="http://www.w3.org/2000/svg">
<path d="M9 4H7.66667C5.64162 4 4 5.64162 4 7.66667V24.3333C4 26.3584 5.64162 28 7.66667 28H8V20C8 18.3431 9.34315 17 11 17H20.8041L23.1876 14.6165C24.0423 13.7618 25.1656 13.3338 26.284 13.3333H26.2868C26.8694 13.3336 27.4534 13.4499 28 13.682V11.0474C28 9.89811 27.5435 8.79591 26.7308 7.98325L24.0167 5.2692C23.2153 4.46772 22.1321 4.01262 21 4.00026V10C21 11.6569 19.6569 13 18 13H12C10.3431 13 9 11.6569 9 10V4ZM18.8041 19L15.3177 22.4864C14.688 23.1161 14.2413 23.9051 14.0253 24.7691L13.415 27.21C13.348 27.4783 13.3217 27.7433 13.3314 28H10V20C10 19.4477 10.4477 19 11 19H18.8041ZM19 4V10C19 10.5523 18.5523 11 18 11H12C11.4477 11 11 10.5523 11 10V4H19ZM26.2869 14.6667H26.2841C25.5046 14.667 24.7253 14.9646 24.1305 15.5593L16.2606 23.4292C15.8018 23.888 15.4763 24.463 15.3189 25.0925L14.7087 27.5334C14.4433 28.5949 15.4048 29.5565 16.4663 29.2911L18.9073 28.6809C19.5368 28.5235 20.1117 28.198 20.5706 27.7391L28.4405 19.8692C29.6306 18.6791 29.6306 16.7494 28.4405 15.5593C27.8457 14.9646 27.0664 14.667 26.2869 14.6667Z" fill="#242424"/>
</svg>
