<svg width="32" height="32" viewBox="0 0 32 32" fill="none" xmlns="http://www.w3.org/2000/svg">
<path d="M29.9922 7C29.9922 4.23858 27.7542 2 24.9936 2H6.99861C4.23795 2 2 4.23858 2 7V25C2 27.7614 4.23795 30 6.99861 30H12.1679H16.0049H25.0024C29.0013 30 30 25 30 25L29.9922 19V13.5153V7ZM9.99777 8.99975V22.9998C9.99777 23.552 9.55018 23.9998 8.99805 23.9998C8.44592 23.9998 7.99833 23.552 7.99833 22.9998V8.99976C7.99833 8.44747 8.44592 7.99976 8.99805 7.99976C9.55018 7.99976 9.99777 8.44747 9.99777 8.99975Z" fill="#242424"/>
</svg>
